<?xml version="1.0" encoding="UTF-8" standalone="no"?>
<svg
   xmlns:dc="http://purl.org/dc/elements/1.1/"
   xmlns:cc="http://creativecommons.org/ns#"
   xmlns:rdf="http://www.w3.org/1999/02/22-rdf-syntax-ns#"
   xmlns:svg="http://www.w3.org/2000/svg"
   xmlns="http://www.w3.org/2000/svg"
   xmlns:sodipodi="http://sodipodi.sourceforge.net/DTD/sodipodi-0.dtd"
   xmlns:inkscape="http://www.inkscape.org/namespaces/inkscape"
   height="172"
   width="210"
   version="1.1"
   id="svg2"
   inkscape:version="0.91 r13725"
   sodipodi:docname="windows-inverted.svg">
  <metadata
     id="metadata200">
    <rdf:RDF>
      <cc:Work
         rdf:about="">
        <dc:format>image/svg+xml</dc:format>
        <dc:type
           rdf:resource="http://purl.org/dc/dcmitype/StillImage" />
        <dc:title></dc:title>
      </cc:Work>
    </rdf:RDF>
  </metadata>
  <defs
     id="defs198" />
  <sodipodi:namedview
     pagecolor="#ffffff"
     bordercolor="#666666"
     borderopacity="1"
     objecttolerance="10"
     gridtolerance="10"
     guidetolerance="10"
     inkscape:pageopacity="0"
     inkscape:pageshadow="2"
     inkscape:window-width="1920"
     inkscape:window-height="1018"
     id="namedview196"
     showgrid="false"
     inkscape:zoom="1.9404326"
     inkscape:cx="46.343038"
     inkscape:cy="38.23509"
     inkscape:window-x="-8"
     inkscape:window-y="-8"
     inkscape:window-maximized="1"
     inkscape:current-layer="svg2" />
  <path
     inkscape:connector-curvature="0"
     style="fill:#cecece;fill-opacity:1"
     id="path94"
     d="m 1.14772,141.389 6.70671,-3.42824 0,6.55832 -6.70671,2.98168 0,-6.11176" />
  <path
     inkscape:connector-curvature="0"
     style="fill:#cecece;fill-opacity:1"
     id="path96"
     d="m 1.14772,15.7315 6.70671,-3.42824 0,6.55971 -6.70671,2.9803 0,-6.11176" />
  <path
     inkscape:connector-curvature="0"
     style="fill:#cecece;fill-opacity:1"
     id="path98"
     d="m 1.14772,78.3372 6.70671,-3.27985 0,6.55693 -6.70671,2.98307 0,-6.26015" />
  <path
     style="fill:#cecece;fill-opacity:1"
     d="M 158.64648 0.43359375 C 142.11968 0.34030948 125.9094 4.0319551 109.96094 10.962891 L 109.96094 31.318359 C 123.00769 25.548423 133.69787 22.437748 143.05273 21.84375 L 143.05273 68.052734 C 131.92436 68.941793 120.94161 72.34735 109.96094 77.376953 L 109.96094 91.830078 C 122.12267 85.918393 133.10616 83.253358 143.05273 82.511719 L 143.05273 126.63086 C 131.33449 128.70925 120.05942 131.82254 109.96094 136.55273 L 109.96094 157.33984 C 141.26304 139.15434 174.50408 140.9421 209.23438 157.78516 L 209.23438 12.603516 C 192.01788 4.4044656 175.17386 0.52688125 158.64648 0.43359375 z M 162.15625 19.455078 C 171.03538 19.433041 179.97088 21.219231 188.8125 24.972656 L 188.8125 71.628906 C 184.4897 69.989666 174.95088 67.007812 169.13867 67.007812 L 156.01953 67.007812 L 156.01953 19.757812 C 158.06047 19.562006 160.10722 19.460164 162.15625 19.455078 z M 164.20508 80.074219 C 172.40863 80.088277 180.651 81.654084 188.8125 84.896484 L 188.8125 130.80664 C 178.378 127.3784 168.69103 125.43882 156.01953 126.03516 L 156.01953 80.572266 C 158.74078 80.236991 161.47056 80.069533 164.20508 80.074219 z "
     id="path100" />
  <path
     inkscape:connector-curvature="0"
     style="fill:#cecece;fill-opacity:1"
     id="path102"
     d="m 15.9036,146.308 8.64411,-5.21725 0,9.24044 -8.64411,4.77209 0,-8.79528" />
  <path
     inkscape:connector-curvature="0"
     style="fill:#cecece;fill-opacity:1"
     id="path104"
     d="m 15.9036,20.6506 8.64411,-5.21587 0,9.09206 -8.64411,4.9177 0,-8.79389" />
  <path
     inkscape:connector-curvature="0"
     style="fill:#cecece;fill-opacity:1"
     id="path106"
     d="m 15.9036,83.4047 8.64411,-5.21726 0,9.24184 -8.64411,4.91908 0,-8.94366" />
  <path
     inkscape:connector-curvature="0"
     style="fill:#cecece;fill-opacity:1"
     id="path112"
     d="m 32.0019,100.994 11.9254,-5.36704 0,-10.8825 -11.9254,5.66658 0,10.5829" />
  <path
     inkscape:connector-curvature="0"
     style="fill:#cecece;fill-opacity:1"
     id="path114"
     d="m 32.0019,163.896 11.9254,-5.36565 0,-10.8811 -11.9254,5.66382 0,10.5829" />
  <path
     inkscape:connector-curvature="0"
     style="fill:#cecece;fill-opacity:1"
     id="path116"
     d="m 32.0019,38.2398 11.9254,-5.36565 0,-10.8811 -11.9254,5.66381 0,10.5829" />
  <path
     inkscape:connector-curvature="0"
     style="fill:#cecece;fill-opacity:1"
     id="path118"
     d="m 49.1459,152.569 14.6061,-6.85649 0,14.6075 -14.6061,7.00627 0,-14.7573" />
  <path
     inkscape:connector-curvature="0"
     style="fill:#cecece;fill-opacity:1"
     id="path120"
     d="m 49.1459,26.9121 14.6061,-6.85788 0,14.6075 -14.6061,7.00765 0,-14.7573" />
  <path
     inkscape:connector-curvature="0"
     style="fill:#cecece;fill-opacity:1"
     id="path122"
     d="m 49.1459,89.8146 14.6061,-6.85648 0,14.6075 -14.6061,7.00627 0,-14.7573" />
  <path
     inkscape:connector-curvature="0"
     style="fill:#cecece;fill-opacity:1"
     id="path124"
     d="m 67.6296,153.313 17.1398,-8.64411 0,16.6947 -17.1398,8.64134 0,-16.6919" />
  <path
     inkscape:connector-curvature="0"
     style="fill:#cecece;fill-opacity:1"
     id="path126"
     d="m 67.6296,27.6569 17.1398,-8.64689 0,16.696 -17.1398,8.6455 0,-16.6947" />
  <path
     inkscape:connector-curvature="0"
     style="fill:#cecece;fill-opacity:1"
     id="path128"
     d="m 67.6296,90.4109 17.1398,-8.6455 0,16.6947 -17.1398,8.79527 0,-16.8444" />
  <path
     inkscape:connector-curvature="0"
     style="fill:#cecece;fill-opacity:1"
     id="path130"
     d="m 88.4958,105.317 0,18.3353 18.4837,-9.54139 0,-17.886 -18.4837,9.09206" />
  <path
     inkscape:connector-curvature="0"
     style="fill:#cecece;fill-opacity:1"
     id="path132"
     d="m 88.4958,126.781 0,18.4823 18.4837,-9.53723 0,-17.8873 -18.4837,8.94229" />
  <path
     inkscape:connector-curvature="0"
     style="fill:#cecece;fill-opacity:1"
     id="path134"
     d="m 88.4958,147.948 0,18.4837 18.4837,-9.6884 0,-17.7403 -18.4837,8.94505" />
  <path
     inkscape:connector-curvature="0"
     style="fill:#cecece;fill-opacity:1"
     id="path136"
     d="m 88.4958,21.2469 0,18.4837 18.4837,-9.6884 0,-17.7389 -18.4837,8.94367" />
  <path
     inkscape:connector-curvature="0"
     style="fill:#cecece;fill-opacity:1"
     id="path138"
     d="m 88.4958,42.4127 0,18.4837 18.4837,-9.6884 0,-17.8873 -18.4837,9.09206" />
  <path
     inkscape:connector-curvature="0"
     style="fill:#cecece;fill-opacity:1"
     id="path140"
     d="m 88.4958,63.2818 0,18.4837 18.4837,-9.54 0,-17.8873 -18.4837,8.94367" />
  <path
     inkscape:connector-curvature="0"
     style="fill:#cecece;fill-opacity:1"
     id="path142"
     d="m 88.4958,84.4489 0,18.4837 18.4837,-9.68839 0,-17.7403 -18.4837,8.94506" />
  <path
     inkscape:connector-curvature="0"
     style="fill:#cecece;fill-opacity:1"
     id="path146"
     d="m 1.14772,120.224 6.70671,-3.27985 0,6.40993 -6.70671,2.98168 0,-6.11176" />
  <path
     inkscape:connector-curvature="0"
     style="fill:#cecece;fill-opacity:1"
     id="path148"
     d="m 1.14772,99.8025 6.70671,-3.27985 0,6.40992 -6.70671,2.9803 0,-6.11037" />
  <path
     inkscape:connector-curvature="0"
     style="fill:#cecece;fill-opacity:1"
     id="path152"
     d="m 15.9036,104.867 8.64411,-5.21448 0,9.09206 -8.64411,4.91909 0,-8.79667" />
  <path
     inkscape:connector-curvature="0"
     style="fill:#cecece;fill-opacity:1"
     id="path154"
     d="m 15.9036,125.141 8.64411,-5.21587 0,9.24045 -8.64411,4.91909 0,-8.94367" />
  <path
     inkscape:connector-curvature="0"
     style="fill:#cecece;fill-opacity:1"
     id="path156"
     d="m 32.0019,122.459 11.9254,-5.51542 0,-10.8811 -11.9254,5.66381 0,10.7327" />
  <path
     inkscape:connector-curvature="0"
     style="fill:#cecece;fill-opacity:1"
     id="path158"
     d="m 32.0019,142.88 11.9254,-5.51543 0,-10.8811 -11.9254,5.6652 0,10.7313" />
  <path
     inkscape:connector-curvature="0"
     style="fill:#cecece;fill-opacity:1"
     id="path160"
     d="m 49.1459,111.28 14.6061,-7.00765 0,14.7586 -14.6061,7.00488 0,-14.7559" />
  <path
     inkscape:connector-curvature="0"
     style="fill:#cecece;fill-opacity:1"
     id="path162"
     d="m 49.1459,131.553 14.6061,-7.00766 0,14.7586 -14.6061,6.8551 0,-14.6061" />
  <path
     inkscape:connector-curvature="0"
     style="fill:#cecece;fill-opacity:1"
     id="path164"
     d="m 67.6296,111.726 17.1398,-8.64549 0,16.6947 -17.1398,8.79527 0,-16.8444" />
  <path
     inkscape:connector-curvature="0"
     style="fill:#cecece;fill-opacity:1"
     id="path166"
     d="m 67.6296,132.149 17.1398,-8.64827 0,16.696 -17.1398,8.79389 0,-16.8417" />
  <path
     inkscape:connector-curvature="0"
     style="fill:#cecece;fill-opacity:1"
     id="path172"
     d="m 1.14772,36.8987 6.70671,-3.27985 0,6.55832 -6.70671,2.98168 0,-6.26015" />
  <path
     inkscape:connector-curvature="0"
     style="fill:#cecece;fill-opacity:1"
     id="path174"
     d="m 1.14772,57.17 6.70671,-3.12869 0,6.55693 -6.70671,2.83191 0,-6.26015" />
  <path
     inkscape:connector-curvature="0"
     style="fill:#cecece;fill-opacity:1"
     id="path178"
     d="m 15.9036,41.9662 8.64411,-5.21587 0,9.24045 -8.64411,4.7707 0,-8.79528" />
  <path
     inkscape:connector-curvature="0"
     style="fill:#cecece;fill-opacity:1"
     id="path180"
     d="m 15.9036,62.2389 8.64411,-5.21726 0,9.24184 -8.64411,4.9177 0,-8.94228" />
  <path
     inkscape:connector-curvature="0"
     style="fill:#cecece;fill-opacity:1"
     id="path182"
     d="m 32.0019,59.5553 11.9254,-5.36565 0,-10.8811 -11.9254,5.66381 0,10.5829" />
  <path
     inkscape:connector-curvature="0"
     style="fill:#cecece;fill-opacity:1"
     id="path184"
     d="m 32.0019,79.828 11.9254,-5.36565 0,-11.0322 -11.9254,5.81359 0,10.5843" />
  <path
     inkscape:connector-curvature="0"
     style="fill:#cecece;fill-opacity:1"
     id="path186"
     d="m 49.1459,48.3747 14.6061,-7.00349 0,14.7559 -14.6061,7.00627 0,-14.7586" />
  <path
     inkscape:connector-curvature="0"
     style="fill:#cecece;fill-opacity:1"
     id="path188"
     d="m 49.1459,68.6474 14.6061,-6.85649 0,14.6089 -14.6061,7.00488 0,-14.7573" />
  <path
     inkscape:connector-curvature="0"
     style="fill:#cecece;fill-opacity:1"
     id="path190"
     d="m 67.6296,48.9724 17.1398,-8.6455 0,16.6947 -17.1398,8.6455 0,-16.6947" />
  <path
     inkscape:connector-curvature="0"
     style="fill:#cecece;fill-opacity:1"
     id="path192"
     d="m 67.6296,69.2437 17.1398,-8.6455 0,16.696 -17.1398,8.64411 0,-16.6947" />
</svg>
